<svg width="1549" height="350" viewBox="0 0 1549 350" fill="none" xmlns="http://www.w3.org/2000/svg">
<g clip-path="url(#clip0_1_15049)">
<path d="M717.242 324.331V0H762.202V305H938.097L937.105 0.330648L983.073 0V324.331C983.073 327.702 982.408 331.041 981.118 334.156C979.827 337.271 977.936 340.101 975.551 342.484C973.167 344.868 970.336 346.759 967.221 348.048C964.106 349.338 960.767 350.001 957.395 350H742.879C736.077 349.991 729.556 347.283 724.749 342.47C719.942 337.657 717.242 331.133 717.242 324.331Z" fill="white"/>
<path d="M1322.1 324.331V0H1367.06V305H1548.39V350H1347.77C1340.96 350 1334.43 347.296 1329.62 342.482C1324.8 337.668 1322.1 331.139 1322.1 324.331Z" fill="white"/>
<path d="M440.04 350H485.008V198H654.419V153H484.968V45H651.621C654.047 45.0001 656.424 44.3122 658.475 43.0161C660.526 41.72 662.168 39.8688 663.21 37.6774L681.121 0H465.669C458.869 0.0128143 452.352 2.72266 447.547 7.53497C442.742 12.3473 440.042 18.8691 440.04 25.6694V350Z" fill="white"/>
<path d="M1032.02 25.6694C1032.02 22.2984 1032.69 18.9605 1033.98 15.8461C1035.27 12.7318 1037.16 9.90199 1039.54 7.51837C1041.93 5.13475 1044.76 3.24397 1047.87 1.95396C1050.98 0.663956 1054.32 0 1057.69 0H1273.11L1255.19 37.6774C1254.15 39.8694 1252.51 41.7211 1250.46 43.0173C1248.41 44.3135 1246.03 45.001 1243.61 45H1076.98V153H1246.4V198H1076.98V305H1273.11V350H1057.69C1050.89 350 1044.36 347.296 1039.54 342.482C1034.73 337.668 1032.02 331.139 1032.02 324.331V25.6694Z" fill="white"/>
<path d="M23.2742 0C17.1029 -3.70471e-07 11.1842 2.45098 6.81969 6.814C2.45517 11.177 0.00213836 17.0948 0 23.2661V350H289.589C299.389 349.999 308.787 346.106 315.718 339.177L339.177 315.718C342.609 312.287 345.331 308.213 347.188 303.73C349.045 299.247 350 294.441 350 289.589V0H23.2742ZM56.7097 45H228.524L114.702 158.823C111.875 161.645 108.043 163.232 104.048 163.234C101.195 163.234 98.3998 162.423 95.9886 160.897C93.5773 159.371 91.6489 157.192 90.4274 154.613L46.3306 61.379C45.5039 59.6297 45.133 57.6997 45.2522 55.7685C45.3715 53.8373 45.9771 51.9676 47.0127 50.3333C48.0484 48.6989 49.4805 47.353 51.1758 46.4205C52.8712 45.4881 54.7748 44.9994 56.7097 45ZM45 305V194.25C45.0021 191.413 46.1306 188.693 48.1373 186.688C50.144 184.683 52.8648 183.556 55.7016 183.556H166.444L45 305ZM194.677 155.331C189.612 160.389 182.747 163.231 175.589 163.234H138.919L249.25 52.9113C251.756 50.4035 254.732 48.4141 258.007 47.0567C261.283 45.6993 264.793 45.0004 268.339 45H305L194.677 155.331Z" fill="#00F58C"/>
</g>
<defs>
<clipPath id="clip0_1_15049">
<rect width="1548.39" height="350" fill="white"/>
</clipPath>
</defs>
</svg>
